<svg width="760" height="420" viewBox="0 0 760 420" xmlns="http://www.w3.org/2000/svg" role="img" aria-label="SolarShare logo">
  <defs>
    <linearGradient id="blueGrad" x1="0" y1="0" x2="1" y2="1">
      <stop offset="0%" stop-color="#1f4b95"/>
      <stop offset="100%" stop-color="#2a66c8"/>
    </linearGradient>
    <linearGradient id="orangeGrad" x1="0" y1="0" x2="1" y2="1">
      <stop offset="0%" stop-color="#f6b23d"/>
      <stop offset="100%" stop-color="#e88916"/>
    </linearGradient>
    <linearGradient id="greenGrad" x1="0" y1="0" x2="1" y2="1">
      <stop offset="0%" stop-color="#89c94c"/>
      <stop offset="100%" stop-color="#5cae2e"/>
    </linearGradient>
    <radialGradient id="halo" cx="50%" cy="45%" r="58%">
      <stop offset="0%" stop-color="#dff6f2"/>
      <stop offset="100%" stop-color="#e9f6ff"/>
    </radialGradient>
  </defs>

  <circle cx="380" cy="138" r="126" fill="url(#halo)"/>

  <g transform="translate(380 138)">
    <circle r="50" fill="#ffffff"/>
    <circle r="42" fill="url(#blueGrad)"/>
    <g stroke="#f6b23d" stroke-width="2" opacity="0.92">
      <line x1="-26" y1="-26" x2="-26" y2="26"/>
      <line x1="-13" y1="-26" x2="-13" y2="26"/>
      <line x1="0" y1="-26" x2="0" y2="26"/>
      <line x1="13" y1="-26" x2="13" y2="26"/>
      <line x1="26" y1="-26" x2="26" y2="26"/>
      <line x1="-26" y1="-26" x2="26" y2="-26"/>
      <line x1="-26" y1="-13" x2="26" y2="-13"/>
      <line x1="-26" y1="0" x2="26" y2="0"/>
      <line x1="-26" y1="13" x2="26" y2="13"/>
      <line x1="-26" y1="26" x2="26" y2="26"/>
    </g>
  </g>

  <path d="M260 154c28-60 90-90 150-82" fill="none" stroke="url(#orangeGrad)" stroke-width="12" stroke-linecap="round"/>
  <path d="M506 110c-20-49-68-79-122-75" fill="none" stroke="url(#orangeGrad)" stroke-width="12" stroke-linecap="round"/>
  <path d="M286 198c30 57 90 82 146 74" fill="none" stroke="url(#blueGrad)" stroke-width="12" stroke-linecap="round"/>
  <path d="M518 176c-24 50-74 79-130 75" fill="none" stroke="url(#blueGrad)" stroke-width="12" stroke-linecap="round"/>

  <circle cx="262" cy="154" r="8" fill="#ef8f22"/>
  <circle cx="506" cy="110" r="8" fill="#ef9e2a"/>
  <circle cx="286" cy="198" r="8" fill="#2a66c8"/>
  <circle cx="518" cy="176" r="8" fill="#3294e0"/>

  <text x="200" y="350" font-family="Manrope, Arial, sans-serif" font-size="76" font-weight="700" fill="#1f4b95">Solar</text>
  <text x="435" y="350" font-family="Manrope, Arial, sans-serif" font-size="76" font-weight="700" fill="url(#greenGrad)">Share</text>
</svg>
